# xmcd
#
# Track frame offsets:
#	183
#	20433
#	37395
#	61835
#	84668
#	106403
#	131705
#	148138
#	165540
#	188605
#
# Disc length: 2646 seconds
#
# Revision: 5
# Processed by: cddbd v1.5.2PL0 Copyright (c) Steve Scherf et al.
# Submitted via: audiograbber 1.83.01
#
DISCID=8a0a540a
DTITLE=Labi Sifre - So strong
DYEAR=1988
DGENRE=Soul
TTITLE0=Listen to the voices
TTITLE1=Nothin's gonna change
TTITLE2=I will always love you
TTITLE3=All I wanna do
TTITLE4=And the wind blows
TTITLE5=(Something inside) So strong
TTITLE6=Lovers
TTITLE7=Hard road
TTITLE8=I'm alright
TTITLE9=When you're lonely
EXTD=
EXTT0=
EXTT1=
EXTT2=
EXTT3=
EXTT4=
EXTT5=
EXTT6=
EXTT7=
EXTT8=
EXTT9=
PLAYORDER=
